<mxfile host="app.diagrams.net" agent="Mozilla/5.0 (Windows NT 10.0; Win64; x64) AppleWebKit/537.36 (KHTML, like Gecko) Chrome/131.0.0.0 Safari/537.36" version="26.0.4">
  <diagram name="Prozessmodell" id="prozessmodell">
    <mxGraphModel dx="1235" dy="614" grid="1" gridSize="10" guides="1" tooltips="1" connect="1" arrows="1" fold="1" page="1" pageScale="1" pageWidth="827" pageHeight="1169" math="0" shadow="0">
      <root>
        <mxCell id="0" />
        <mxCell id="1" parent="0" />
        <mxCell id="2" value="Mitarbeiter" style="swimlane" parent="1" vertex="1">
          <mxGeometry width="400" height="1169" as="geometry" />
        </mxCell>
        <mxCell id="kL_FzKw8bKm4v5D_N_F_-21" value="Start" style="points=[[0.145,0.145,0],[0.5,0,0],[0.855,0.145,0],[1,0.5,0],[0.855,0.855,0],[0.5,1,0],[0.145,0.855,0],[0,0.5,0]];shape=mxgraph.bpmn.event;html=1;verticalLabelPosition=bottom;labelBackgroundColor=#ffffff;verticalAlign=top;align=center;perimeter=ellipsePerimeter;outlineConnect=0;aspect=fixed;outline=standard;symbol=general;" vertex="1" parent="2">
          <mxGeometry x="165" y="40" width="50" height="50" as="geometry" />
        </mxCell>
        <mxCell id="kL_FzKw8bKm4v5D_N_F_-22" value="Mitarbeiter informiert HR über Nebentätigkeit" style="points=[[0.25,0,0],[0.5,0,0],[0.75,0,0],[1,0.25,0],[1,0.5,0],[1,0.75,0],[0.75,1,0],[0.5,1,0],[0.25,1,0],[0,0.75,0],[0,0.5,0],[0,0.25,0]];shape=mxgraph.bpmn.task;whiteSpace=wrap;rectStyle=rounded;size=10;html=1;container=1;expand=0;collapsible=0;taskMarker=abstract;" vertex="1" parent="2">
          <mxGeometry x="110" y="160" width="160" height="80" as="geometry" />
        </mxCell>
        <mxCell id="kL_FzKw8bKm4v5D_N_F_-23" style="edgeStyle=orthogonalEdgeStyle;rounded=0;orthogonalLoop=1;jettySize=auto;html=1;entryX=0.5;entryY=0;entryDx=0;entryDy=0;entryPerimeter=0;" edge="1" parent="2" source="kL_FzKw8bKm4v5D_N_F_-21" target="kL_FzKw8bKm4v5D_N_F_-22">
          <mxGeometry relative="1" as="geometry" />
        </mxCell>
        <mxCell id="3" value="HR" style="swimlane" parent="1" vertex="1">
          <mxGeometry x="400" width="400" height="1169" as="geometry" />
        </mxCell>
        <mxCell id="9" value="Anfrage ablehnen" style="rounded=1;whiteSpace=wrap;html=1;" parent="3" vertex="1">
          <mxGeometry x="220" y="480" width="160" height="60" as="geometry" />
        </mxCell>
        <mxCell id="10" value="NEIN" style="edgeStyle=orthogonalEdgeStyle;rounded=0;orthogonalLoop=1;" parent="3" source="kL_FzKw8bKm4v5D_N_F_-28" target="11" edge="1">
          <mxGeometry relative="1" as="geometry">
            <mxPoint x="210" y="350" as="sourcePoint" />
          </mxGeometry>
        </mxCell>
        <mxCell id="11" value="Dokument &quot;Erlaubnis Nebentätigkeit&quot; erstellen" style="rounded=1;whiteSpace=wrap;html=1;" parent="3" vertex="1">
          <mxGeometry x="20" y="480" width="160" height="60" as="geometry" />
        </mxCell>
        <mxCell id="12" value="Rücksprache bei Unklarheiten" style="rounded=1;whiteSpace=wrap;html=1;" parent="3" vertex="1">
          <mxGeometry x="20" y="590" width="160" height="60" as="geometry" />
        </mxCell>
        <mxCell id="13" value="Dokument zur Unterschrift vorlegen" style="rounded=1;whiteSpace=wrap;html=1;" parent="3" vertex="1">
          <mxGeometry x="20" y="710" width="160" height="60" as="geometry" />
        </mxCell>
        <mxCell id="kL_FzKw8bKm4v5D_N_F_-38" value="" style="edgeStyle=orthogonalEdgeStyle;rounded=0;orthogonalLoop=1;jettySize=auto;html=1;" edge="1" parent="3" source="14" target="kL_FzKw8bKm4v5D_N_F_-37">
          <mxGeometry relative="1" as="geometry" />
        </mxCell>
        <mxCell id="14" value="unterschriebenes Dokument einscannen" style="rounded=1;whiteSpace=wrap;html=1;" parent="3" vertex="1">
          <mxGeometry x="20" y="840" width="160" height="60" as="geometry" />
        </mxCell>
        <mxCell id="kL_FzKw8bKm4v5D_N_F_-24" value="Information zu Nebentätigkeit einholen" style="points=[[0.25,0,0],[0.5,0,0],[0.75,0,0],[1,0.25,0],[1,0.5,0],[1,0.75,0],[0.75,1,0],[0.5,1,0],[0.25,1,0],[0,0.75,0],[0,0.5,0],[0,0.25,0]];shape=mxgraph.bpmn.task;whiteSpace=wrap;rectStyle=rounded;size=10;html=1;container=1;expand=0;collapsible=0;taskMarker=abstract;" vertex="1" parent="3">
          <mxGeometry x="140" y="160" width="120" height="80" as="geometry" />
        </mxCell>
        <mxCell id="kL_FzKw8bKm4v5D_N_F_-29" style="edgeStyle=orthogonalEdgeStyle;rounded=0;orthogonalLoop=1;jettySize=auto;html=1;entryX=0.5;entryY=0;entryDx=0;entryDy=0;entryPerimeter=0;" edge="1" parent="3" source="kL_FzKw8bKm4v5D_N_F_-24" target="kL_FzKw8bKm4v5D_N_F_-28">
          <mxGeometry relative="1" as="geometry" />
        </mxCell>
        <mxCell id="kL_FzKw8bKm4v5D_N_F_-31" style="edgeStyle=orthogonalEdgeStyle;rounded=0;orthogonalLoop=1;jettySize=auto;html=1;entryX=0.5;entryY=0;entryDx=0;entryDy=0;" edge="1" parent="3" source="kL_FzKw8bKm4v5D_N_F_-28" target="9">
          <mxGeometry relative="1" as="geometry" />
        </mxCell>
        <mxCell id="kL_FzKw8bKm4v5D_N_F_-32" value="JA" style="edgeLabel;html=1;align=center;verticalAlign=middle;resizable=0;points=[];" vertex="1" connectable="0" parent="kL_FzKw8bKm4v5D_N_F_-31">
          <mxGeometry x="0.2381" y="-1" relative="1" as="geometry">
            <mxPoint as="offset" />
          </mxGeometry>
        </mxCell>
        <mxCell id="kL_FzKw8bKm4v5D_N_F_-28" value="Steht Nebentätigkeit im Wettbewerb mit Adorsys?" style="points=[[0.25,0.25,0],[0.5,0,0],[0.75,0.25,0],[1,0.5,0],[0.75,0.75,0],[0.5,1,0],[0.25,0.75,0],[0,0.5,0]];shape=mxgraph.bpmn.gateway2;html=1;verticalLabelPosition=bottom;labelBackgroundColor=#ffffff;verticalAlign=top;align=center;perimeter=rhombusPerimeter;outlineConnect=0;outline=none;symbol=none;gwType=exclusive;" vertex="1" parent="3">
          <mxGeometry x="175" y="320" width="50" height="50" as="geometry" />
        </mxCell>
        <mxCell id="kL_FzKw8bKm4v5D_N_F_-41" value="" style="edgeStyle=orthogonalEdgeStyle;rounded=0;orthogonalLoop=1;jettySize=auto;html=1;" edge="1" parent="3" source="kL_FzKw8bKm4v5D_N_F_-37" target="kL_FzKw8bKm4v5D_N_F_-39">
          <mxGeometry relative="1" as="geometry" />
        </mxCell>
        <mxCell id="kL_FzKw8bKm4v5D_N_F_-37" value="Dokument in Personalakte ablegen" style="whiteSpace=wrap;html=1;rounded=1;" vertex="1" parent="3">
          <mxGeometry x="20" y="980" width="160" height="60" as="geometry" />
        </mxCell>
        <mxCell id="kL_FzKw8bKm4v5D_N_F_-40" value="Ende" style="points=[[0.145,0.145,0],[0.5,0,0],[0.855,0.145,0],[1,0.5,0],[0.855,0.855,0],[0.5,1,0],[0.145,0.855,0],[0,0.5,0]];shape=mxgraph.bpmn.event;html=1;verticalLabelPosition=bottom;labelBackgroundColor=#ffffff;verticalAlign=top;align=center;perimeter=ellipsePerimeter;outlineConnect=0;aspect=fixed;outline=end;symbol=terminate2;" vertex="1" parent="3">
          <mxGeometry x="275" y="610" width="50" height="50" as="geometry" />
        </mxCell>
        <mxCell id="kL_FzKw8bKm4v5D_N_F_-39" value="Ende" style="points=[[0.145,0.145,0],[0.5,0,0],[0.855,0.145,0],[1,0.5,0],[0.855,0.855,0],[0.5,1,0],[0.145,0.855,0],[0,0.5,0]];shape=mxgraph.bpmn.event;html=1;verticalLabelPosition=bottom;labelBackgroundColor=#ffffff;verticalAlign=top;align=center;perimeter=ellipsePerimeter;outlineConnect=0;aspect=fixed;outline=end;symbol=terminate2;" vertex="1" parent="3">
          <mxGeometry x="75" y="1080" width="50" height="50" as="geometry" />
        </mxCell>
        <mxCell id="kL_FzKw8bKm4v5D_N_F_-42" style="edgeStyle=orthogonalEdgeStyle;rounded=0;orthogonalLoop=1;jettySize=auto;html=1;entryX=0.5;entryY=0;entryDx=0;entryDy=0;entryPerimeter=0;" edge="1" parent="3" source="9" target="kL_FzKw8bKm4v5D_N_F_-40">
          <mxGeometry relative="1" as="geometry" />
        </mxCell>
        <mxCell id="4" value="Geschäftsführung" style="swimlane" parent="1" vertex="1">
          <mxGeometry x="800" width="400" height="1169" as="geometry" />
        </mxCell>
        <mxCell id="kL_FzKw8bKm4v5D_N_F_-34" value="Rücksprache führen (optional)" style="whiteSpace=wrap;html=1;rounded=1;" vertex="1" parent="4">
          <mxGeometry x="140" y="480" width="120" height="60" as="geometry" />
        </mxCell>
        <mxCell id="17" style="edgeStyle=orthogonalEdgeStyle;rounded=0;orthogonalLoop=1;" parent="1" source="11" target="12" edge="1">
          <mxGeometry relative="1" as="geometry" />
        </mxCell>
        <mxCell id="18" style="edgeStyle=orthogonalEdgeStyle;rounded=0;orthogonalLoop=1;" parent="1" source="12" target="13" edge="1">
          <mxGeometry relative="1" as="geometry" />
        </mxCell>
        <mxCell id="19" style="edgeStyle=orthogonalEdgeStyle;rounded=0;orthogonalLoop=1;" parent="1" source="13" target="14" edge="1">
          <mxGeometry relative="1" as="geometry" />
        </mxCell>
        <mxCell id="kL_FzKw8bKm4v5D_N_F_-27" style="edgeStyle=orthogonalEdgeStyle;rounded=0;orthogonalLoop=1;jettySize=auto;html=1;entryX=0;entryY=0.5;entryDx=0;entryDy=0;entryPerimeter=0;" edge="1" parent="1" source="kL_FzKw8bKm4v5D_N_F_-22" target="kL_FzKw8bKm4v5D_N_F_-24">
          <mxGeometry relative="1" as="geometry" />
        </mxCell>
        <mxCell id="kL_FzKw8bKm4v5D_N_F_-35" value="" style="edgeStyle=orthogonalEdgeStyle;rounded=0;orthogonalLoop=1;jettySize=auto;html=1;startArrow=diamond;startFill=0;" edge="1" parent="1" source="9" target="kL_FzKw8bKm4v5D_N_F_-34">
          <mxGeometry relative="1" as="geometry" />
        </mxCell>
        <mxCell id="kL_FzKw8bKm4v5D_N_F_-36" value="Rücksprache nötig?" style="edgeLabel;html=1;align=center;verticalAlign=middle;resizable=0;points=[];" vertex="1" connectable="0" parent="kL_FzKw8bKm4v5D_N_F_-35">
          <mxGeometry x="-0.24" relative="1" as="geometry">
            <mxPoint x="-1" y="-20" as="offset" />
          </mxGeometry>
        </mxCell>
      </root>
    </mxGraphModel>
  </diagram>
</mxfile>
